<mxfile host="app.diagrams.net" modified="2020-11-20T08:34:49.955Z" agent="5.0 (Windows NT 10.0; Win64; x64) AppleWebKit/537.36 (KHTML, like Gecko) Chrome/85.0.4183.121 Safari/537.36" etag="31wjxlsoIKczrcNizBhL" version="13.10.0" type="github">
  <diagram id="6a731a19-8d31-9384-78a2-239565b7b9f0" name="Page-1">
    <mxGraphModel dx="1038" dy="548" grid="1" gridSize="10" guides="1" tooltips="1" connect="1" arrows="1" fold="1" page="1" pageScale="1" pageWidth="827" pageHeight="1169" background="#ffffff" math="0" shadow="0">
      <root>
        <mxCell id="0" />
        <mxCell id="1" parent="0" />
        <mxCell id="M2FqS30lnjKGFiDD58Ys-2403" value="" style="text;html=1;strokeColor=#82b366;fillColor=#d5e8d4;align=center;verticalAlign=middle;whiteSpace=wrap;overflow=hidden;" parent="1" vertex="1">
          <mxGeometry x="1350" y="213.5" width="221" height="293.5" as="geometry" />
        </mxCell>
        <mxCell id="M2FqS30lnjKGFiDD58Ys-2402" value="" style="text;html=1;strokeColor=#82b366;fillColor=#d5e8d4;align=center;verticalAlign=middle;whiteSpace=wrap;overflow=hidden;" parent="1" vertex="1">
          <mxGeometry x="1087" y="377" width="221" height="80" as="geometry" />
        </mxCell>
        <mxCell id="M2FqS30lnjKGFiDD58Ys-2399" value="" style="text;html=1;strokeColor=#82b366;fillColor=#d5e8d4;align=center;verticalAlign=middle;whiteSpace=wrap;overflow=hidden;" parent="1" vertex="1">
          <mxGeometry x="1087" y="227" width="221" height="130" as="geometry" />
        </mxCell>
        <mxCell id="M2FqS30lnjKGFiDD58Ys-2398" value="" style="text;html=1;strokeColor=#82b366;fillColor=#d5e8d4;align=center;verticalAlign=middle;whiteSpace=wrap;overflow=hidden;" parent="1" vertex="1">
          <mxGeometry x="841" y="647" width="221" height="117" as="geometry" />
        </mxCell>
        <mxCell id="M2FqS30lnjKGFiDD58Ys-2394" value="" style="text;html=1;strokeColor=#82b366;fillColor=#d5e8d4;align=center;verticalAlign=middle;whiteSpace=wrap;overflow=hidden;" parent="1" vertex="1">
          <mxGeometry x="830" y="227" width="231" height="381.5" as="geometry" />
        </mxCell>
        <mxCell id="M2FqS30lnjKGFiDD58Ys-2393" value="" style="text;html=1;strokeColor=#82b366;fillColor=#d5e8d4;align=center;verticalAlign=middle;whiteSpace=wrap;overflow=hidden;" parent="1" vertex="1">
          <mxGeometry x="601" y="500" width="209" height="177" as="geometry" />
        </mxCell>
        <mxCell id="M2FqS30lnjKGFiDD58Ys-2392" value="" style="text;html=1;strokeColor=#82b366;fillColor=#d5e8d4;align=center;verticalAlign=middle;whiteSpace=wrap;overflow=hidden;" parent="1" vertex="1">
          <mxGeometry x="601" y="221.5" width="209" height="245.5" as="geometry" />
        </mxCell>
        <mxCell id="M2FqS30lnjKGFiDD58Ys-2391" value="" style="text;html=1;strokeColor=#82b366;fillColor=#d5e8d4;align=center;verticalAlign=middle;whiteSpace=wrap;overflow=hidden;" parent="1" vertex="1">
          <mxGeometry x="320" y="736" width="240" height="161" as="geometry" />
        </mxCell>
        <mxCell id="M2FqS30lnjKGFiDD58Ys-2390" value="" style="text;html=1;strokeColor=#82b366;fillColor=#d5e8d4;align=center;verticalAlign=middle;whiteSpace=wrap;overflow=hidden;" parent="1" vertex="1">
          <mxGeometry x="320" y="221.5" width="240" height="495.5" as="geometry" />
        </mxCell>
        <mxCell id="M2FqS30lnjKGFiDD58Ys-2387" value="" style="text;html=1;strokeColor=#82b366;fillColor=#d5e8d4;align=center;verticalAlign=middle;whiteSpace=wrap;overflow=hidden;" parent="1" vertex="1">
          <mxGeometry x="70" y="685.5" width="210" height="231.5" as="geometry" />
        </mxCell>
        <mxCell id="M2FqS30lnjKGFiDD58Ys-2386" value="" style="text;html=1;strokeColor=#82b366;fillColor=#d5e8d4;align=center;verticalAlign=middle;whiteSpace=wrap;overflow=hidden;" parent="1" vertex="1">
          <mxGeometry x="60" y="221.5" width="220" height="85.5" as="geometry" />
        </mxCell>
        <mxCell id="M2FqS30lnjKGFiDD58Ys-2381" value="" style="text;html=1;strokeColor=#82b366;fillColor=#d5e8d4;align=center;verticalAlign=middle;whiteSpace=wrap;overflow=hidden;" parent="1" vertex="1">
          <mxGeometry x="60" y="324.5" width="220" height="322.5" as="geometry" />
        </mxCell>
        <mxCell id="2107" value="" style="shape=mxgraph.cisco.switches.workgroup_switch;html=1;dashed=0;fillColor=#10739E;strokeColor=#ffffff;strokeWidth=2;verticalLabelPosition=bottom;verticalAlign=top;fontFamily=Helvetica;fontSize=36;fontColor=#FFB366" parent="1" vertex="1">
          <mxGeometry x="788" y="87" width="101" height="50" as="geometry" />
        </mxCell>
        <mxCell id="2163" value="" style="edgeStyle=elbowEdgeStyle;elbow=horizontal;endArrow=none;html=1;strokeColor=#23445D;endFill=0;strokeWidth=4;rounded=1" parent="1" source="2107" edge="1">
          <mxGeometry width="100" height="100" relative="1" as="geometry">
            <mxPoint x="585.5000000000001" y="220" as="sourcePoint" />
            <mxPoint x="61" y="187" as="targetPoint" />
            <Array as="points">
              <mxPoint x="830.5" y="187" />
              <mxPoint x="480.5" y="112" />
            </Array>
          </mxGeometry>
        </mxCell>
        <mxCell id="2188" style="rounded=1;html=1;strokeColor=#23445D;endArrow=none;endFill=0;strokeWidth=4" parent="1" edge="1">
          <mxGeometry relative="1" as="geometry">
            <mxPoint x="70" y="887" as="sourcePoint" />
            <mxPoint x="60" y="187" as="targetPoint" />
          </mxGeometry>
        </mxCell>
        <mxCell id="2227" value="&lt;font color=&quot;#23445d&quot; style=&quot;font-size: 26px&quot;&gt;汇聚交换机&lt;/font&gt;" style="rounded=1;whiteSpace=wrap;html=1;strokeColor=none;fillColor=none;fontSize=14;fontColor=#742B21;align=center;fontStyle=1" parent="1" vertex="1">
          <mxGeometry x="773" y="40" width="143" height="19" as="geometry" />
        </mxCell>
        <mxCell id="2230" value="RACK1" style="rounded=1;whiteSpace=wrap;html=1;strokeColor=none;fillColor=none;fontSize=14;fontColor=#23445D;align=center;fontStyle=1" parent="1" vertex="1">
          <mxGeometry x="195" y="254.75" width="96" height="19" as="geometry" />
        </mxCell>
        <mxCell id="2257" style="edgeStyle=orthogonalEdgeStyle;curved=1;rounded=0;jumpStyle=none;html=1;exitX=0.75;exitY=0;entryX=0.75;entryY=0;shadow=0;labelBackgroundColor=#ffffff;startArrow=none;startFill=0;endArrow=none;endFill=0;endSize=10;jettySize=auto;orthogonalLoop=1;strokeColor=#23445D;strokeWidth=2;fillColor=#F08705;fontFamily=Helvetica;fontSize=25;fontColor=#23445D;align=left;" parent="1" edge="1">
          <mxGeometry relative="1" as="geometry">
            <mxPoint x="960.25" y="351" as="sourcePoint" />
            <mxPoint x="960.25" y="351" as="targetPoint" />
          </mxGeometry>
        </mxCell>
        <mxCell id="M2FqS30lnjKGFiDD58Ys-2263" value="" style="edgeStyle=elbowEdgeStyle;elbow=horizontal;endArrow=none;html=1;strokeColor=#23445D;endFill=0;strokeWidth=4;rounded=1" parent="1" edge="1">
          <mxGeometry width="100" height="100" relative="1" as="geometry">
            <mxPoint x="1250.5" y="187" as="sourcePoint" />
            <mxPoint x="820.5" y="187" as="targetPoint" />
            <Array as="points">
              <mxPoint x="1580" y="187" />
              <mxPoint x="910.5" y="112" />
            </Array>
          </mxGeometry>
        </mxCell>
        <mxCell id="M2FqS30lnjKGFiDD58Ys-2264" style="rounded=1;html=1;strokeColor=#23445D;endArrow=none;endFill=0;strokeWidth=4" parent="1" edge="1">
          <mxGeometry relative="1" as="geometry">
            <mxPoint x="320" y="867" as="sourcePoint" />
            <mxPoint x="320" y="187" as="targetPoint" />
          </mxGeometry>
        </mxCell>
        <mxCell id="M2FqS30lnjKGFiDD58Ys-2265" style="rounded=1;html=1;strokeColor=#23445D;endArrow=none;endFill=0;strokeWidth=4" parent="1" edge="1">
          <mxGeometry relative="1" as="geometry">
            <mxPoint x="600" y="637" as="sourcePoint" />
            <mxPoint x="601" y="192" as="targetPoint" />
          </mxGeometry>
        </mxCell>
        <mxCell id="M2FqS30lnjKGFiDD58Ys-2266" style="rounded=1;html=1;strokeColor=#23445D;endArrow=none;endFill=0;strokeWidth=4" parent="1" edge="1">
          <mxGeometry relative="1" as="geometry">
            <mxPoint x="1574" y="447" as="sourcePoint" />
            <mxPoint x="1575" y="187" as="targetPoint" />
          </mxGeometry>
        </mxCell>
        <mxCell id="M2FqS30lnjKGFiDD58Ys-2267" style="rounded=1;html=1;strokeColor=#23445D;endArrow=none;endFill=0;strokeWidth=4" parent="1" edge="1">
          <mxGeometry relative="1" as="geometry">
            <mxPoint x="1308" y="407" as="sourcePoint" />
            <mxPoint x="1309" y="187" as="targetPoint" />
          </mxGeometry>
        </mxCell>
        <mxCell id="M2FqS30lnjKGFiDD58Ys-2268" style="rounded=1;html=1;strokeColor=#23445D;endArrow=none;endFill=0;strokeWidth=4" parent="1" edge="1">
          <mxGeometry relative="1" as="geometry">
            <mxPoint x="1060" y="727" as="sourcePoint" />
            <mxPoint x="1061" y="187" as="targetPoint" />
          </mxGeometry>
        </mxCell>
        <mxCell id="M2FqS30lnjKGFiDD58Ys-2280" style="rounded=1;html=1;strokeColor=#23445D;endArrow=none;endFill=0;strokeWidth=4" parent="1" edge="1">
          <mxGeometry relative="1" as="geometry">
            <mxPoint x="60" y="271" as="sourcePoint" />
            <mxPoint x="129" y="271" as="targetPoint" />
          </mxGeometry>
        </mxCell>
        <mxCell id="M2FqS30lnjKGFiDD58Ys-2283" style="rounded=1;html=1;strokeColor=#23445D;endArrow=none;endFill=0;strokeWidth=4" parent="1" edge="1">
          <mxGeometry relative="1" as="geometry">
            <mxPoint x="64" y="362" as="sourcePoint" />
            <mxPoint x="133" y="362" as="targetPoint" />
          </mxGeometry>
        </mxCell>
        <mxCell id="M2FqS30lnjKGFiDD58Ys-2270" value="" style="shape=mxgraph.cisco.switches.workgroup_switch;html=1;dashed=0;fillColor=#10739E;strokeColor=#ffffff;strokeWidth=2;verticalLabelPosition=bottom;verticalAlign=top;fontFamily=Helvetica;fontSize=36;fontColor=#FFB366" parent="1" vertex="1">
          <mxGeometry x="100" y="334" width="101" height="50" as="geometry" />
        </mxCell>
        <mxCell id="2115" value="" style="shape=mxgraph.cisco.switches.workgroup_switch;html=1;dashed=0;fillColor=#10739E;strokeColor=#ffffff;strokeWidth=2;verticalLabelPosition=bottom;verticalAlign=top;fontFamily=Helvetica;fontSize=36;fontColor=#FFB366" parent="1" vertex="1">
          <mxGeometry x="110" y="247" width="101" height="50" as="geometry" />
        </mxCell>
        <mxCell id="M2FqS30lnjKGFiDD58Ys-2284" style="rounded=1;html=1;strokeColor=#23445D;endArrow=none;endFill=0;strokeWidth=4" parent="1" edge="1">
          <mxGeometry relative="1" as="geometry">
            <mxPoint x="63" y="412" as="sourcePoint" />
            <mxPoint x="132" y="412" as="targetPoint" />
          </mxGeometry>
        </mxCell>
        <mxCell id="M2FqS30lnjKGFiDD58Ys-2285" style="rounded=1;html=1;strokeColor=#23445D;endArrow=none;endFill=0;strokeWidth=4" parent="1" edge="1">
          <mxGeometry relative="1" as="geometry">
            <mxPoint x="66" y="458" as="sourcePoint" />
            <mxPoint x="135" y="458" as="targetPoint" />
          </mxGeometry>
        </mxCell>
        <mxCell id="M2FqS30lnjKGFiDD58Ys-2286" style="rounded=1;html=1;strokeColor=#23445D;endArrow=none;endFill=0;strokeWidth=4" parent="1" edge="1">
          <mxGeometry relative="1" as="geometry">
            <mxPoint x="67" y="509" as="sourcePoint" />
            <mxPoint x="136" y="509" as="targetPoint" />
          </mxGeometry>
        </mxCell>
        <mxCell id="M2FqS30lnjKGFiDD58Ys-2287" style="rounded=1;html=1;strokeColor=#23445D;endArrow=none;endFill=0;strokeWidth=4" parent="1" edge="1">
          <mxGeometry relative="1" as="geometry">
            <mxPoint x="63" y="562" as="sourcePoint" />
            <mxPoint x="132" y="562" as="targetPoint" />
          </mxGeometry>
        </mxCell>
        <mxCell id="M2FqS30lnjKGFiDD58Ys-2288" style="rounded=1;html=1;strokeColor=#23445D;endArrow=none;endFill=0;strokeWidth=4" parent="1" edge="1">
          <mxGeometry relative="1" as="geometry">
            <mxPoint x="65" y="611" as="sourcePoint" />
            <mxPoint x="134" y="611" as="targetPoint" />
          </mxGeometry>
        </mxCell>
        <mxCell id="M2FqS30lnjKGFiDD58Ys-2289" style="rounded=1;html=1;strokeColor=#23445D;endArrow=none;endFill=0;strokeWidth=4" parent="1" edge="1">
          <mxGeometry relative="1" as="geometry">
            <mxPoint x="70" y="732" as="sourcePoint" />
            <mxPoint x="139" y="732" as="targetPoint" />
          </mxGeometry>
        </mxCell>
        <mxCell id="M2FqS30lnjKGFiDD58Ys-2290" style="rounded=1;html=1;strokeColor=#23445D;endArrow=none;endFill=0;strokeWidth=4" parent="1" edge="1">
          <mxGeometry relative="1" as="geometry">
            <mxPoint x="71" y="785" as="sourcePoint" />
            <mxPoint x="140" y="785" as="targetPoint" />
          </mxGeometry>
        </mxCell>
        <mxCell id="M2FqS30lnjKGFiDD58Ys-2291" style="rounded=1;html=1;strokeColor=#23445D;endArrow=none;endFill=0;strokeWidth=4" parent="1" edge="1">
          <mxGeometry relative="1" as="geometry">
            <mxPoint x="69" y="832" as="sourcePoint" />
            <mxPoint x="138" y="832" as="targetPoint" />
          </mxGeometry>
        </mxCell>
        <mxCell id="M2FqS30lnjKGFiDD58Ys-2292" style="rounded=1;html=1;strokeColor=#23445D;endArrow=none;endFill=0;strokeWidth=4" parent="1" edge="1">
          <mxGeometry relative="1" as="geometry">
            <mxPoint x="71" y="884" as="sourcePoint" />
            <mxPoint x="140" y="884" as="targetPoint" />
          </mxGeometry>
        </mxCell>
        <mxCell id="M2FqS30lnjKGFiDD58Ys-2275" value="" style="shape=mxgraph.cisco.switches.workgroup_switch;html=1;dashed=0;fillColor=#10739E;strokeColor=#ffffff;strokeWidth=2;verticalLabelPosition=bottom;verticalAlign=top;fontFamily=Helvetica;fontSize=36;fontColor=#FFB366" parent="1" vertex="1">
          <mxGeometry x="100" y="707" width="101" height="50" as="geometry" />
        </mxCell>
        <mxCell id="M2FqS30lnjKGFiDD58Ys-2276" value="" style="shape=mxgraph.cisco.switches.workgroup_switch;html=1;dashed=0;fillColor=#10739E;strokeColor=#ffffff;strokeWidth=2;verticalLabelPosition=bottom;verticalAlign=top;fontFamily=Helvetica;fontSize=36;fontColor=#FFB366" parent="1" vertex="1">
          <mxGeometry x="100" y="757" width="101" height="50" as="geometry" />
        </mxCell>
        <mxCell id="M2FqS30lnjKGFiDD58Ys-2277" value="" style="shape=mxgraph.cisco.switches.workgroup_switch;html=1;dashed=0;fillColor=#10739E;strokeColor=#ffffff;strokeWidth=2;verticalLabelPosition=bottom;verticalAlign=top;fontFamily=Helvetica;fontSize=36;fontColor=#FFB366" parent="1" vertex="1">
          <mxGeometry x="100" y="807" width="101" height="50" as="geometry" />
        </mxCell>
        <mxCell id="M2FqS30lnjKGFiDD58Ys-2278" value="" style="shape=mxgraph.cisco.switches.workgroup_switch;html=1;dashed=0;fillColor=#10739E;strokeColor=#ffffff;strokeWidth=2;verticalLabelPosition=bottom;verticalAlign=top;fontFamily=Helvetica;fontSize=36;fontColor=#FFB366" parent="1" vertex="1">
          <mxGeometry x="100" y="857" width="101" height="50" as="geometry" />
        </mxCell>
        <mxCell id="M2FqS30lnjKGFiDD58Ys-2274" value="" style="shape=mxgraph.cisco.switches.workgroup_switch;html=1;dashed=0;fillColor=#10739E;strokeColor=#ffffff;strokeWidth=2;verticalLabelPosition=bottom;verticalAlign=top;fontFamily=Helvetica;fontSize=36;fontColor=#FFB366" parent="1" vertex="1">
          <mxGeometry x="100" y="584" width="101" height="50" as="geometry" />
        </mxCell>
        <mxCell id="M2FqS30lnjKGFiDD58Ys-2273" value="" style="shape=mxgraph.cisco.switches.workgroup_switch;html=1;dashed=0;fillColor=#10739E;strokeColor=#ffffff;strokeWidth=2;verticalLabelPosition=bottom;verticalAlign=top;fontFamily=Helvetica;fontSize=36;fontColor=#FFB366" parent="1" vertex="1">
          <mxGeometry x="100" y="534" width="101" height="50" as="geometry" />
        </mxCell>
        <mxCell id="2114" value="" style="shape=mxgraph.cisco.switches.workgroup_switch;html=1;dashed=0;fillColor=#10739E;strokeColor=#ffffff;strokeWidth=2;verticalLabelPosition=bottom;verticalAlign=top;fontFamily=Helvetica;fontSize=36;fontColor=#FFB366" parent="1" vertex="1">
          <mxGeometry x="100" y="484" width="101" height="50" as="geometry" />
        </mxCell>
        <mxCell id="2116" value="" style="shape=mxgraph.cisco.switches.workgroup_switch;html=1;dashed=0;fillColor=#10739E;strokeColor=#ffffff;strokeWidth=2;verticalLabelPosition=bottom;verticalAlign=top;fontFamily=Helvetica;fontSize=36;fontColor=#FFB366" parent="1" vertex="1">
          <mxGeometry x="100" y="434" width="101" height="50" as="geometry" />
        </mxCell>
        <mxCell id="M2FqS30lnjKGFiDD58Ys-2271" value="" style="shape=mxgraph.cisco.switches.workgroup_switch;html=1;dashed=0;fillColor=#10739E;strokeColor=#ffffff;strokeWidth=2;verticalLabelPosition=bottom;verticalAlign=top;fontFamily=Helvetica;fontSize=36;fontColor=#FFB366" parent="1" vertex="1">
          <mxGeometry x="100" y="384" width="101" height="50" as="geometry" />
        </mxCell>
        <mxCell id="M2FqS30lnjKGFiDD58Ys-2300" style="rounded=1;html=1;strokeColor=#23445D;endArrow=none;endFill=0;strokeWidth=4" parent="1" edge="1">
          <mxGeometry relative="1" as="geometry">
            <mxPoint x="321" y="374" as="sourcePoint" />
            <mxPoint x="390" y="374" as="targetPoint" />
          </mxGeometry>
        </mxCell>
        <mxCell id="M2FqS30lnjKGFiDD58Ys-2301" style="rounded=1;html=1;strokeColor=#23445D;endArrow=none;endFill=0;strokeWidth=4" parent="1" edge="1">
          <mxGeometry relative="1" as="geometry">
            <mxPoint x="321" y="429" as="sourcePoint" />
            <mxPoint x="390" y="429" as="targetPoint" />
          </mxGeometry>
        </mxCell>
        <mxCell id="M2FqS30lnjKGFiDD58Ys-2302" style="rounded=1;html=1;strokeColor=#23445D;endArrow=none;endFill=0;strokeWidth=4" parent="1" edge="1">
          <mxGeometry relative="1" as="geometry">
            <mxPoint x="320" y="527" as="sourcePoint" />
            <mxPoint x="389" y="527" as="targetPoint" />
          </mxGeometry>
        </mxCell>
        <mxCell id="M2FqS30lnjKGFiDD58Ys-2303" value="" style="shape=mxgraph.cisco.switches.workgroup_switch;html=1;dashed=0;fillColor=#10739E;strokeColor=#ffffff;strokeWidth=2;verticalLabelPosition=bottom;verticalAlign=top;fontFamily=Helvetica;fontSize=36;fontColor=#FFB366" parent="1" vertex="1">
          <mxGeometry x="355" y="500" width="101" height="50" as="geometry" />
        </mxCell>
        <mxCell id="M2FqS30lnjKGFiDD58Ys-2310" style="rounded=1;html=1;strokeColor=#23445D;endArrow=none;endFill=0;strokeWidth=4" parent="1" edge="1">
          <mxGeometry relative="1" as="geometry">
            <mxPoint x="322" y="329" as="sourcePoint" />
            <mxPoint x="391" y="329" as="targetPoint" />
          </mxGeometry>
        </mxCell>
        <mxCell id="M2FqS30lnjKGFiDD58Ys-2311" style="rounded=1;html=1;strokeColor=#23445D;endArrow=none;endFill=0;strokeWidth=4" parent="1" edge="1">
          <mxGeometry relative="1" as="geometry">
            <mxPoint x="320" y="276" as="sourcePoint" />
            <mxPoint x="389" y="276" as="targetPoint" />
          </mxGeometry>
        </mxCell>
        <mxCell id="M2FqS30lnjKGFiDD58Ys-2312" style="rounded=1;html=1;strokeColor=#23445D;endArrow=none;endFill=0;strokeWidth=4" parent="1" edge="1">
          <mxGeometry relative="1" as="geometry">
            <mxPoint x="323" y="477" as="sourcePoint" />
            <mxPoint x="392" y="477" as="targetPoint" />
          </mxGeometry>
        </mxCell>
        <mxCell id="M2FqS30lnjKGFiDD58Ys-2313" style="rounded=1;html=1;strokeColor=#23445D;endArrow=none;endFill=0;strokeWidth=4" parent="1" edge="1">
          <mxGeometry relative="1" as="geometry">
            <mxPoint x="319" y="570" as="sourcePoint" />
            <mxPoint x="388" y="570" as="targetPoint" />
          </mxGeometry>
        </mxCell>
        <mxCell id="M2FqS30lnjKGFiDD58Ys-2317" style="rounded=1;html=1;strokeColor=#23445D;endArrow=none;endFill=0;strokeWidth=4" parent="1" edge="1">
          <mxGeometry relative="1" as="geometry">
            <mxPoint x="322" y="625" as="sourcePoint" />
            <mxPoint x="391" y="625" as="targetPoint" />
          </mxGeometry>
        </mxCell>
        <mxCell id="M2FqS30lnjKGFiDD58Ys-2318" style="rounded=1;html=1;strokeColor=#23445D;endArrow=none;endFill=0;strokeWidth=4" parent="1" edge="1">
          <mxGeometry relative="1" as="geometry">
            <mxPoint x="322" y="677" as="sourcePoint" />
            <mxPoint x="391" y="677" as="targetPoint" />
          </mxGeometry>
        </mxCell>
        <mxCell id="M2FqS30lnjKGFiDD58Ys-2316" value="" style="shape=mxgraph.cisco.switches.workgroup_switch;html=1;dashed=0;fillColor=#10739E;strokeColor=#ffffff;strokeWidth=2;verticalLabelPosition=bottom;verticalAlign=top;fontFamily=Helvetica;fontSize=36;fontColor=#FFB366" parent="1" vertex="1">
          <mxGeometry x="351" y="647" width="101" height="50" as="geometry" />
        </mxCell>
        <mxCell id="M2FqS30lnjKGFiDD58Ys-2314" value="" style="shape=mxgraph.cisco.switches.workgroup_switch;html=1;dashed=0;fillColor=#10739E;strokeColor=#ffffff;strokeWidth=2;verticalLabelPosition=bottom;verticalAlign=top;fontFamily=Helvetica;fontSize=36;fontColor=#FFB366" parent="1" vertex="1">
          <mxGeometry x="351" y="550" width="101" height="50" as="geometry" />
        </mxCell>
        <mxCell id="M2FqS30lnjKGFiDD58Ys-2315" value="" style="shape=mxgraph.cisco.switches.workgroup_switch;html=1;dashed=0;fillColor=#10739E;strokeColor=#ffffff;strokeWidth=2;verticalLabelPosition=bottom;verticalAlign=top;fontFamily=Helvetica;fontSize=36;fontColor=#FFB366;fontStyle=1" parent="1" vertex="1">
          <mxGeometry x="351" y="597" width="101" height="50" as="geometry" />
        </mxCell>
        <mxCell id="M2FqS30lnjKGFiDD58Ys-2304" value="" style="shape=mxgraph.cisco.switches.workgroup_switch;html=1;dashed=0;fillColor=#10739E;strokeColor=#ffffff;strokeWidth=2;verticalLabelPosition=bottom;verticalAlign=top;fontFamily=Helvetica;fontSize=36;fontColor=#FFB366" parent="1" vertex="1">
          <mxGeometry x="355" y="450" width="101" height="50" as="geometry" />
        </mxCell>
        <mxCell id="M2FqS30lnjKGFiDD58Ys-2305" value="" style="shape=mxgraph.cisco.switches.workgroup_switch;html=1;dashed=0;fillColor=#10739E;strokeColor=#ffffff;strokeWidth=2;verticalLabelPosition=bottom;verticalAlign=top;fontFamily=Helvetica;fontSize=36;fontColor=#FFB366" parent="1" vertex="1">
          <mxGeometry x="351" y="400" width="101" height="50" as="geometry" />
        </mxCell>
        <mxCell id="M2FqS30lnjKGFiDD58Ys-2307" value="" style="shape=mxgraph.cisco.switches.workgroup_switch;html=1;dashed=0;fillColor=#10739E;strokeColor=#ffffff;strokeWidth=2;verticalLabelPosition=bottom;verticalAlign=top;fontFamily=Helvetica;fontSize=36;fontColor=#FFB366" parent="1" vertex="1">
          <mxGeometry x="355" y="300" width="101" height="50" as="geometry" />
        </mxCell>
        <mxCell id="M2FqS30lnjKGFiDD58Ys-2306" value="" style="shape=mxgraph.cisco.switches.workgroup_switch;html=1;dashed=0;fillColor=#10739E;strokeColor=#ffffff;strokeWidth=2;verticalLabelPosition=bottom;verticalAlign=top;fontFamily=Helvetica;fontSize=36;fontColor=#FFB366" parent="1" vertex="1">
          <mxGeometry x="355" y="350" width="101" height="50" as="geometry" />
        </mxCell>
        <mxCell id="M2FqS30lnjKGFiDD58Ys-2299" value="" style="shape=mxgraph.cisco.switches.workgroup_switch;html=1;dashed=0;fillColor=#10739E;strokeColor=#ffffff;strokeWidth=2;verticalLabelPosition=bottom;verticalAlign=top;fontFamily=Helvetica;fontSize=36;fontColor=#FFB366" parent="1" vertex="1">
          <mxGeometry x="355" y="250" width="101" height="50" as="geometry" />
        </mxCell>
        <mxCell id="M2FqS30lnjKGFiDD58Ys-2319" style="rounded=1;html=1;strokeColor=#23445D;endArrow=none;endFill=0;strokeWidth=4" parent="1" edge="1">
          <mxGeometry relative="1" as="geometry">
            <mxPoint x="323" y="764" as="sourcePoint" />
            <mxPoint x="392" y="764" as="targetPoint" />
          </mxGeometry>
        </mxCell>
        <mxCell id="M2FqS30lnjKGFiDD58Ys-2320" style="rounded=1;html=1;strokeColor=#23445D;endArrow=none;endFill=0;strokeWidth=4" parent="1" edge="1">
          <mxGeometry relative="1" as="geometry">
            <mxPoint x="323" y="811" as="sourcePoint" />
            <mxPoint x="392" y="811" as="targetPoint" />
          </mxGeometry>
        </mxCell>
        <mxCell id="M2FqS30lnjKGFiDD58Ys-2321" style="rounded=1;html=1;strokeColor=#23445D;endArrow=none;endFill=0;strokeWidth=4" parent="1" edge="1">
          <mxGeometry relative="1" as="geometry">
            <mxPoint x="321" y="862" as="sourcePoint" />
            <mxPoint x="390" y="862" as="targetPoint" />
          </mxGeometry>
        </mxCell>
        <mxCell id="M2FqS30lnjKGFiDD58Ys-2322" value="" style="shape=mxgraph.cisco.switches.workgroup_switch;html=1;dashed=0;fillColor=#10739E;strokeColor=#ffffff;strokeWidth=2;verticalLabelPosition=bottom;verticalAlign=top;fontFamily=Helvetica;fontSize=36;fontColor=#FFB366" parent="1" vertex="1">
          <mxGeometry x="355" y="736" width="101" height="50" as="geometry" />
        </mxCell>
        <mxCell id="M2FqS30lnjKGFiDD58Ys-2323" value="" style="shape=mxgraph.cisco.switches.workgroup_switch;html=1;dashed=0;fillColor=#10739E;strokeColor=#ffffff;strokeWidth=2;verticalLabelPosition=bottom;verticalAlign=top;fontFamily=Helvetica;fontSize=36;fontColor=#FFB366" parent="1" vertex="1">
          <mxGeometry x="355" y="786" width="101" height="50" as="geometry" />
        </mxCell>
        <mxCell id="M2FqS30lnjKGFiDD58Ys-2324" value="" style="shape=mxgraph.cisco.switches.workgroup_switch;html=1;dashed=0;fillColor=#10739E;strokeColor=#ffffff;strokeWidth=2;verticalLabelPosition=bottom;verticalAlign=top;fontFamily=Helvetica;fontSize=36;fontColor=#FFB366" parent="1" vertex="1">
          <mxGeometry x="355" y="836" width="101" height="50" as="geometry" />
        </mxCell>
        <mxCell id="M2FqS30lnjKGFiDD58Ys-2325" style="rounded=1;html=1;strokeColor=#23445D;endArrow=none;endFill=0;strokeWidth=4" parent="1" edge="1">
          <mxGeometry relative="1" as="geometry">
            <mxPoint x="601" y="275" as="sourcePoint" />
            <mxPoint x="670" y="275" as="targetPoint" />
          </mxGeometry>
        </mxCell>
        <mxCell id="M2FqS30lnjKGFiDD58Ys-2326" style="rounded=1;html=1;strokeColor=#23445D;endArrow=none;endFill=0;strokeWidth=4" parent="1" edge="1">
          <mxGeometry relative="1" as="geometry">
            <mxPoint x="602" y="328" as="sourcePoint" />
            <mxPoint x="671" y="328" as="targetPoint" />
          </mxGeometry>
        </mxCell>
        <mxCell id="M2FqS30lnjKGFiDD58Ys-2327" style="rounded=1;html=1;strokeColor=#23445D;endArrow=none;endFill=0;strokeWidth=4" parent="1" edge="1">
          <mxGeometry relative="1" as="geometry">
            <mxPoint x="600" y="375" as="sourcePoint" />
            <mxPoint x="669" y="375" as="targetPoint" />
          </mxGeometry>
        </mxCell>
        <mxCell id="M2FqS30lnjKGFiDD58Ys-2328" style="rounded=1;html=1;strokeColor=#23445D;endArrow=none;endFill=0;strokeWidth=4" parent="1" edge="1">
          <mxGeometry relative="1" as="geometry">
            <mxPoint x="602" y="427" as="sourcePoint" />
            <mxPoint x="671" y="427" as="targetPoint" />
          </mxGeometry>
        </mxCell>
        <mxCell id="M2FqS30lnjKGFiDD58Ys-2329" value="" style="shape=mxgraph.cisco.switches.workgroup_switch;html=1;dashed=0;fillColor=#10739E;strokeColor=#ffffff;strokeWidth=2;verticalLabelPosition=bottom;verticalAlign=top;fontFamily=Helvetica;fontSize=36;fontColor=#FFB366" parent="1" vertex="1">
          <mxGeometry x="631" y="250" width="101" height="50" as="geometry" />
        </mxCell>
        <mxCell id="M2FqS30lnjKGFiDD58Ys-2330" value="" style="shape=mxgraph.cisco.switches.workgroup_switch;html=1;dashed=0;fillColor=#10739E;strokeColor=#ffffff;strokeWidth=2;verticalLabelPosition=bottom;verticalAlign=top;fontFamily=Helvetica;fontSize=36;fontColor=#FFB366" parent="1" vertex="1">
          <mxGeometry x="631" y="300" width="101" height="50" as="geometry" />
        </mxCell>
        <mxCell id="M2FqS30lnjKGFiDD58Ys-2331" value="" style="shape=mxgraph.cisco.switches.workgroup_switch;html=1;dashed=0;fillColor=#10739E;strokeColor=#ffffff;strokeWidth=2;verticalLabelPosition=bottom;verticalAlign=top;fontFamily=Helvetica;fontSize=36;fontColor=#FFB366" parent="1" vertex="1">
          <mxGeometry x="631" y="350" width="101" height="50" as="geometry" />
        </mxCell>
        <mxCell id="M2FqS30lnjKGFiDD58Ys-2332" value="" style="shape=mxgraph.cisco.switches.workgroup_switch;html=1;dashed=0;fillColor=#10739E;strokeColor=#ffffff;strokeWidth=2;verticalLabelPosition=bottom;verticalAlign=top;fontFamily=Helvetica;fontSize=36;fontColor=#FFB366" parent="1" vertex="1">
          <mxGeometry x="631" y="400" width="101" height="50" as="geometry" />
        </mxCell>
        <mxCell id="M2FqS30lnjKGFiDD58Ys-2333" style="rounded=1;html=1;strokeColor=#23445D;endArrow=none;endFill=0;strokeWidth=4" parent="1" edge="1">
          <mxGeometry relative="1" as="geometry">
            <mxPoint x="599" y="539" as="sourcePoint" />
            <mxPoint x="668" y="539" as="targetPoint" />
          </mxGeometry>
        </mxCell>
        <mxCell id="M2FqS30lnjKGFiDD58Ys-2334" style="rounded=1;html=1;strokeColor=#23445D;endArrow=none;endFill=0;strokeWidth=4" parent="1" edge="1">
          <mxGeometry relative="1" as="geometry">
            <mxPoint x="599" y="586" as="sourcePoint" />
            <mxPoint x="668" y="586" as="targetPoint" />
          </mxGeometry>
        </mxCell>
        <mxCell id="M2FqS30lnjKGFiDD58Ys-2335" style="rounded=1;html=1;strokeColor=#23445D;endArrow=none;endFill=0;strokeWidth=4" parent="1" edge="1">
          <mxGeometry relative="1" as="geometry">
            <mxPoint x="597" y="637" as="sourcePoint" />
            <mxPoint x="666" y="637" as="targetPoint" />
          </mxGeometry>
        </mxCell>
        <mxCell id="M2FqS30lnjKGFiDD58Ys-2336" value="" style="shape=mxgraph.cisco.switches.workgroup_switch;html=1;dashed=0;fillColor=#10739E;strokeColor=#ffffff;strokeWidth=2;verticalLabelPosition=bottom;verticalAlign=top;fontFamily=Helvetica;fontSize=36;fontColor=#FFB366" parent="1" vertex="1">
          <mxGeometry x="631" y="511" width="101" height="50" as="geometry" />
        </mxCell>
        <mxCell id="M2FqS30lnjKGFiDD58Ys-2337" value="" style="shape=mxgraph.cisco.switches.workgroup_switch;html=1;dashed=0;fillColor=#10739E;strokeColor=#ffffff;strokeWidth=2;verticalLabelPosition=bottom;verticalAlign=top;fontFamily=Helvetica;fontSize=36;fontColor=#FFB366" parent="1" vertex="1">
          <mxGeometry x="631" y="561" width="101" height="50" as="geometry" />
        </mxCell>
        <mxCell id="M2FqS30lnjKGFiDD58Ys-2338" value="" style="shape=mxgraph.cisco.switches.workgroup_switch;html=1;dashed=0;fillColor=#10739E;strokeColor=#ffffff;strokeWidth=2;verticalLabelPosition=bottom;verticalAlign=top;fontFamily=Helvetica;fontSize=36;fontColor=#FFB366" parent="1" vertex="1">
          <mxGeometry x="631" y="611" width="101" height="50" as="geometry" />
        </mxCell>
        <mxCell id="M2FqS30lnjKGFiDD58Ys-2339" style="rounded=1;html=1;strokeColor=#23445D;endArrow=none;endFill=0;strokeWidth=4" parent="1" edge="1">
          <mxGeometry relative="1" as="geometry">
            <mxPoint x="992" y="308" as="sourcePoint" />
            <mxPoint x="1061" y="308" as="targetPoint" />
          </mxGeometry>
        </mxCell>
        <mxCell id="M2FqS30lnjKGFiDD58Ys-2340" style="rounded=1;html=1;strokeColor=#23445D;endArrow=none;endFill=0;strokeWidth=4" parent="1" edge="1">
          <mxGeometry relative="1" as="geometry">
            <mxPoint x="992" y="362" as="sourcePoint" />
            <mxPoint x="1061" y="362" as="targetPoint" />
          </mxGeometry>
        </mxCell>
        <mxCell id="M2FqS30lnjKGFiDD58Ys-2341" style="rounded=1;html=1;strokeColor=#23445D;endArrow=none;endFill=0;strokeWidth=4" parent="1" edge="1">
          <mxGeometry relative="1" as="geometry">
            <mxPoint x="991" y="465" as="sourcePoint" />
            <mxPoint x="1060" y="465" as="targetPoint" />
          </mxGeometry>
        </mxCell>
        <mxCell id="M2FqS30lnjKGFiDD58Ys-2342" value="" style="shape=mxgraph.cisco.switches.workgroup_switch;html=1;dashed=0;fillColor=#10739E;strokeColor=#ffffff;strokeWidth=2;verticalLabelPosition=bottom;verticalAlign=top;fontFamily=Helvetica;fontSize=36;fontColor=#FFB366" parent="1" vertex="1">
          <mxGeometry x="900" y="447" width="101" height="50" as="geometry" />
        </mxCell>
        <mxCell id="M2FqS30lnjKGFiDD58Ys-2343" style="rounded=1;html=1;strokeColor=#23445D;endArrow=none;endFill=0;strokeWidth=4" parent="1" edge="1">
          <mxGeometry relative="1" as="geometry">
            <mxPoint x="993" y="258" as="sourcePoint" />
            <mxPoint x="1062" y="258" as="targetPoint" />
          </mxGeometry>
        </mxCell>
        <mxCell id="M2FqS30lnjKGFiDD58Ys-2344" style="rounded=1;html=1;strokeColor=#23445D;endArrow=none;endFill=0;strokeWidth=4" parent="1" edge="1">
          <mxGeometry relative="1" as="geometry">
            <mxPoint x="994" y="410" as="sourcePoint" />
            <mxPoint x="1063" y="410" as="targetPoint" />
          </mxGeometry>
        </mxCell>
        <mxCell id="M2FqS30lnjKGFiDD58Ys-2345" style="rounded=1;html=1;strokeColor=#23445D;endArrow=none;endFill=0;strokeWidth=4" parent="1" edge="1">
          <mxGeometry relative="1" as="geometry">
            <mxPoint x="991" y="507" as="sourcePoint" />
            <mxPoint x="1060" y="507" as="targetPoint" />
          </mxGeometry>
        </mxCell>
        <mxCell id="M2FqS30lnjKGFiDD58Ys-2346" style="rounded=1;html=1;strokeColor=#23445D;endArrow=none;endFill=0;strokeWidth=4" parent="1" edge="1">
          <mxGeometry relative="1" as="geometry">
            <mxPoint x="993" y="562" as="sourcePoint" />
            <mxPoint x="1062" y="562" as="targetPoint" />
          </mxGeometry>
        </mxCell>
        <mxCell id="M2FqS30lnjKGFiDD58Ys-2347" value="" style="shape=mxgraph.cisco.switches.workgroup_switch;html=1;dashed=0;fillColor=#10739E;strokeColor=#ffffff;strokeWidth=2;verticalLabelPosition=bottom;verticalAlign=top;fontFamily=Helvetica;fontSize=36;fontColor=#FFB366" parent="1" vertex="1">
          <mxGeometry x="896" y="497" width="101" height="50" as="geometry" />
        </mxCell>
        <mxCell id="M2FqS30lnjKGFiDD58Ys-2348" value="" style="shape=mxgraph.cisco.switches.workgroup_switch;html=1;dashed=0;fillColor=#10739E;strokeColor=#ffffff;strokeWidth=2;verticalLabelPosition=bottom;verticalAlign=top;fontFamily=Helvetica;fontSize=36;fontColor=#FFB366;fontStyle=1" parent="1" vertex="1">
          <mxGeometry x="896" y="544" width="101" height="50" as="geometry" />
        </mxCell>
        <mxCell id="M2FqS30lnjKGFiDD58Ys-2349" value="" style="shape=mxgraph.cisco.switches.workgroup_switch;html=1;dashed=0;fillColor=#10739E;strokeColor=#ffffff;strokeWidth=2;verticalLabelPosition=bottom;verticalAlign=top;fontFamily=Helvetica;fontSize=36;fontColor=#FFB366" parent="1" vertex="1">
          <mxGeometry x="900" y="397" width="101" height="50" as="geometry" />
        </mxCell>
        <mxCell id="M2FqS30lnjKGFiDD58Ys-2350" value="" style="shape=mxgraph.cisco.switches.workgroup_switch;html=1;dashed=0;fillColor=#10739E;strokeColor=#ffffff;strokeWidth=2;verticalLabelPosition=bottom;verticalAlign=top;fontFamily=Helvetica;fontSize=36;fontColor=#FFB366" parent="1" vertex="1">
          <mxGeometry x="896" y="347" width="101" height="50" as="geometry" />
        </mxCell>
        <mxCell id="M2FqS30lnjKGFiDD58Ys-2351" value="" style="shape=mxgraph.cisco.switches.workgroup_switch;html=1;dashed=0;fillColor=#10739E;strokeColor=#ffffff;strokeWidth=2;verticalLabelPosition=bottom;verticalAlign=top;fontFamily=Helvetica;fontSize=36;fontColor=#FFB366" parent="1" vertex="1">
          <mxGeometry x="900" y="247" width="101" height="50" as="geometry" />
        </mxCell>
        <mxCell id="M2FqS30lnjKGFiDD58Ys-2352" value="" style="shape=mxgraph.cisco.switches.workgroup_switch;html=1;dashed=0;fillColor=#10739E;strokeColor=#ffffff;strokeWidth=2;verticalLabelPosition=bottom;verticalAlign=top;fontFamily=Helvetica;fontSize=36;fontColor=#FFB366" parent="1" vertex="1">
          <mxGeometry x="900" y="297" width="101" height="50" as="geometry" />
        </mxCell>
        <mxCell id="M2FqS30lnjKGFiDD58Ys-2353" style="rounded=1;html=1;strokeColor=#23445D;endArrow=none;endFill=0;strokeWidth=4" parent="1" edge="1">
          <mxGeometry relative="1" as="geometry">
            <mxPoint x="992" y="671" as="sourcePoint" />
            <mxPoint x="1061" y="671" as="targetPoint" />
          </mxGeometry>
        </mxCell>
        <mxCell id="M2FqS30lnjKGFiDD58Ys-2354" style="rounded=1;html=1;strokeColor=#23445D;endArrow=none;endFill=0;strokeWidth=4" parent="1" edge="1">
          <mxGeometry relative="1" as="geometry">
            <mxPoint x="991" y="726" as="sourcePoint" />
            <mxPoint x="1060" y="726" as="targetPoint" />
          </mxGeometry>
        </mxCell>
        <mxCell id="M2FqS30lnjKGFiDD58Ys-2355" value="" style="shape=mxgraph.cisco.switches.workgroup_switch;html=1;dashed=0;fillColor=#10739E;strokeColor=#ffffff;strokeWidth=2;verticalLabelPosition=bottom;verticalAlign=top;fontFamily=Helvetica;fontSize=36;fontColor=#FFB366" parent="1" vertex="1">
          <mxGeometry x="900" y="661" width="101" height="50" as="geometry" />
        </mxCell>
        <mxCell id="M2FqS30lnjKGFiDD58Ys-2356" value="" style="shape=mxgraph.cisco.switches.workgroup_switch;html=1;dashed=0;fillColor=#10739E;strokeColor=#ffffff;strokeWidth=2;verticalLabelPosition=bottom;verticalAlign=top;fontFamily=Helvetica;fontSize=36;fontColor=#FFB366;fontStyle=1" parent="1" vertex="1">
          <mxGeometry x="900" y="708" width="101" height="50" as="geometry" />
        </mxCell>
        <mxCell id="M2FqS30lnjKGFiDD58Ys-2357" style="rounded=1;html=1;strokeColor=#23445D;endArrow=none;endFill=0;strokeWidth=4" parent="1" edge="1">
          <mxGeometry relative="1" as="geometry">
            <mxPoint x="1238" y="257" as="sourcePoint" />
            <mxPoint x="1307" y="257" as="targetPoint" />
          </mxGeometry>
        </mxCell>
        <mxCell id="M2FqS30lnjKGFiDD58Ys-2358" style="rounded=1;html=1;strokeColor=#23445D;endArrow=none;endFill=0;strokeWidth=4" parent="1" edge="1">
          <mxGeometry relative="1" as="geometry">
            <mxPoint x="1240" y="312" as="sourcePoint" />
            <mxPoint x="1309" y="312" as="targetPoint" />
          </mxGeometry>
        </mxCell>
        <mxCell id="M2FqS30lnjKGFiDD58Ys-2359" value="" style="shape=mxgraph.cisco.switches.workgroup_switch;html=1;dashed=0;fillColor=#10739E;strokeColor=#ffffff;strokeWidth=2;verticalLabelPosition=bottom;verticalAlign=top;fontFamily=Helvetica;fontSize=36;fontColor=#FFB366" parent="1" vertex="1">
          <mxGeometry x="1143" y="247" width="101" height="50" as="geometry" />
        </mxCell>
        <mxCell id="M2FqS30lnjKGFiDD58Ys-2360" value="" style="shape=mxgraph.cisco.switches.workgroup_switch;html=1;dashed=0;fillColor=#10739E;strokeColor=#ffffff;strokeWidth=2;verticalLabelPosition=bottom;verticalAlign=top;fontFamily=Helvetica;fontSize=36;fontColor=#FFB366;fontStyle=1" parent="1" vertex="1">
          <mxGeometry x="1143" y="294" width="101" height="50" as="geometry" />
        </mxCell>
        <mxCell id="M2FqS30lnjKGFiDD58Ys-2361" style="rounded=1;html=1;strokeColor=#23445D;endArrow=none;endFill=0;strokeWidth=4" parent="1" edge="1">
          <mxGeometry relative="1" as="geometry">
            <mxPoint x="1239" y="405" as="sourcePoint" />
            <mxPoint x="1308" y="405" as="targetPoint" />
          </mxGeometry>
        </mxCell>
        <mxCell id="M2FqS30lnjKGFiDD58Ys-2362" value="" style="shape=mxgraph.cisco.switches.workgroup_switch;html=1;dashed=0;fillColor=#10739E;strokeColor=#ffffff;strokeWidth=2;verticalLabelPosition=bottom;verticalAlign=top;fontFamily=Helvetica;fontSize=36;fontColor=#FFB366;fontStyle=1" parent="1" vertex="1">
          <mxGeometry x="1147" y="384" width="101" height="50" as="geometry" />
        </mxCell>
        <mxCell id="M2FqS30lnjKGFiDD58Ys-2363" style="rounded=1;html=1;strokeColor=#23445D;endArrow=none;endFill=0;strokeWidth=4" parent="1" edge="1">
          <mxGeometry relative="1" as="geometry">
            <mxPoint x="1505" y="257" as="sourcePoint" />
            <mxPoint x="1574" y="257" as="targetPoint" />
          </mxGeometry>
        </mxCell>
        <mxCell id="M2FqS30lnjKGFiDD58Ys-2364" style="rounded=1;html=1;strokeColor=#23445D;endArrow=none;endFill=0;strokeWidth=4" parent="1" edge="1">
          <mxGeometry relative="1" as="geometry">
            <mxPoint x="1507" y="312" as="sourcePoint" />
            <mxPoint x="1576" y="312" as="targetPoint" />
          </mxGeometry>
        </mxCell>
        <mxCell id="M2FqS30lnjKGFiDD58Ys-2365" value="" style="shape=mxgraph.cisco.switches.workgroup_switch;html=1;dashed=0;fillColor=#10739E;strokeColor=#ffffff;strokeWidth=2;verticalLabelPosition=bottom;verticalAlign=top;fontFamily=Helvetica;fontSize=36;fontColor=#FFB366" parent="1" vertex="1">
          <mxGeometry x="1410" y="247" width="101" height="50" as="geometry" />
        </mxCell>
        <mxCell id="M2FqS30lnjKGFiDD58Ys-2366" value="" style="shape=mxgraph.cisco.switches.workgroup_switch;html=1;dashed=0;fillColor=#10739E;strokeColor=#ffffff;strokeWidth=2;verticalLabelPosition=bottom;verticalAlign=top;fontFamily=Helvetica;fontSize=36;fontColor=#FFB366;fontStyle=1" parent="1" vertex="1">
          <mxGeometry x="1410" y="294" width="101" height="50" as="geometry" />
        </mxCell>
        <mxCell id="M2FqS30lnjKGFiDD58Ys-2371" style="rounded=1;html=1;strokeColor=#23445D;endArrow=none;endFill=0;strokeWidth=4" parent="1" edge="1">
          <mxGeometry relative="1" as="geometry">
            <mxPoint x="1506" y="397" as="sourcePoint" />
            <mxPoint x="1575" y="397" as="targetPoint" />
          </mxGeometry>
        </mxCell>
        <mxCell id="M2FqS30lnjKGFiDD58Ys-2372" style="rounded=1;html=1;strokeColor=#23445D;endArrow=none;endFill=0;strokeWidth=4" parent="1" edge="1">
          <mxGeometry relative="1" as="geometry">
            <mxPoint x="1507" y="449" as="sourcePoint" />
            <mxPoint x="1576" y="449" as="targetPoint" />
          </mxGeometry>
        </mxCell>
        <mxCell id="M2FqS30lnjKGFiDD58Ys-2373" value="" style="shape=mxgraph.cisco.switches.workgroup_switch;html=1;dashed=0;fillColor=#10739E;strokeColor=#ffffff;strokeWidth=2;verticalLabelPosition=bottom;verticalAlign=top;fontFamily=Helvetica;fontSize=36;fontColor=#FFB366" parent="1" vertex="1">
          <mxGeometry x="1411" y="384" width="101" height="50" as="geometry" />
        </mxCell>
        <mxCell id="M2FqS30lnjKGFiDD58Ys-2374" value="" style="shape=mxgraph.cisco.switches.workgroup_switch;html=1;dashed=0;fillColor=#10739E;strokeColor=#ffffff;strokeWidth=2;verticalLabelPosition=bottom;verticalAlign=top;fontFamily=Helvetica;fontSize=36;fontColor=#FFB366;fontStyle=1" parent="1" vertex="1">
          <mxGeometry x="1411" y="434" width="101" height="50" as="geometry" />
        </mxCell>
        <mxCell id="M2FqS30lnjKGFiDD58Ys-2388" style="rounded=1;html=1;strokeColor=#23445D;endArrow=none;endFill=0;strokeWidth=4" parent="1" edge="1">
          <mxGeometry relative="1" as="geometry">
            <mxPoint x="70" y="877" as="sourcePoint" />
            <mxPoint x="60" y="187" as="targetPoint" />
          </mxGeometry>
        </mxCell>
        <mxCell id="M2FqS30lnjKGFiDD58Ys-2389" style="rounded=1;html=1;strokeColor=#23445D;endArrow=none;endFill=0;strokeWidth=4" parent="1" edge="1">
          <mxGeometry relative="1" as="geometry">
            <mxPoint x="70" y="887" as="sourcePoint" />
            <mxPoint x="60" y="187" as="targetPoint" />
          </mxGeometry>
        </mxCell>
        <mxCell id="M2FqS30lnjKGFiDD58Ys-2405" value="RACK2" style="rounded=1;whiteSpace=wrap;html=1;strokeColor=none;fillColor=none;fontSize=14;fontColor=#23445D;align=center;fontStyle=1" parent="1" vertex="1">
          <mxGeometry x="184" y="476.25" width="96" height="19" as="geometry" />
        </mxCell>
        <mxCell id="M2FqS30lnjKGFiDD58Ys-2406" value="RACK3" style="rounded=1;whiteSpace=wrap;html=1;strokeColor=none;fillColor=none;fontSize=14;fontColor=#23445D;align=center;fontStyle=1" parent="1" vertex="1">
          <mxGeometry x="184" y="777" width="96" height="19" as="geometry" />
        </mxCell>
        <mxCell id="M2FqS30lnjKGFiDD58Ys-2407" value="RACK2" style="rounded=1;whiteSpace=wrap;html=1;strokeColor=none;fillColor=none;fontSize=14;fontColor=#23445D;align=center;fontStyle=1" parent="1" vertex="1">
          <mxGeometry x="456" y="807" width="96" height="19" as="geometry" />
        </mxCell>
        <mxCell id="M2FqS30lnjKGFiDD58Ys-2410" value="RACK1" style="rounded=1;whiteSpace=wrap;html=1;strokeColor=none;fillColor=none;fontSize=14;fontColor=#23445D;align=center;fontStyle=1" parent="1" vertex="1">
          <mxGeometry x="456" y="467" width="96" height="19" as="geometry" />
        </mxCell>
        <mxCell id="M2FqS30lnjKGFiDD58Ys-2411" value="RACK1" style="rounded=1;whiteSpace=wrap;html=1;strokeColor=none;fillColor=none;fontSize=14;fontColor=#23445D;align=center;fontStyle=1" parent="1" vertex="1">
          <mxGeometry x="714" y="334.75" width="96" height="19" as="geometry" />
        </mxCell>
        <mxCell id="M2FqS30lnjKGFiDD58Ys-2412" value="RACK1" style="rounded=1;whiteSpace=wrap;html=1;strokeColor=none;fillColor=none;fontSize=14;fontColor=#23445D;align=center;fontStyle=1" parent="1" vertex="1">
          <mxGeometry x="820" y="397" width="96" height="19" as="geometry" />
        </mxCell>
        <mxCell id="M2FqS30lnjKGFiDD58Ys-2413" value="RACK2" style="rounded=1;whiteSpace=wrap;html=1;strokeColor=none;fillColor=none;fontSize=14;fontColor=#23445D;align=center;fontStyle=1" parent="1" vertex="1">
          <mxGeometry x="710" y="584" width="96" height="19" as="geometry" />
        </mxCell>
        <mxCell id="M2FqS30lnjKGFiDD58Ys-2414" value="RACK2" style="rounded=1;whiteSpace=wrap;html=1;strokeColor=none;fillColor=none;fontSize=14;fontColor=#23445D;align=center;fontStyle=1" parent="1" vertex="1">
          <mxGeometry x="820" y="708" width="96" height="19" as="geometry" />
        </mxCell>
        <mxCell id="M2FqS30lnjKGFiDD58Ys-2415" value="RACK1" style="rounded=1;whiteSpace=wrap;html=1;strokeColor=none;fillColor=none;fontSize=14;fontColor=#23445D;align=center;fontStyle=1" parent="1" vertex="1">
          <mxGeometry x="1070" y="297" width="96" height="19" as="geometry" />
        </mxCell>
        <mxCell id="M2FqS30lnjKGFiDD58Ys-2416" value="RACK2" style="rounded=1;whiteSpace=wrap;html=1;strokeColor=none;fillColor=none;fontSize=14;fontColor=#23445D;align=center;fontStyle=1" parent="1" vertex="1">
          <mxGeometry x="1070" y="412.5" width="96" height="19" as="geometry" />
        </mxCell>
        <mxCell id="M2FqS30lnjKGFiDD58Ys-2419" value="RACK1" style="rounded=1;whiteSpace=wrap;html=1;strokeColor=none;fillColor=none;fontSize=14;fontColor=#23445D;align=center;fontStyle=1" parent="1" vertex="1">
          <mxGeometry x="1330" y="362.5" width="96" height="19" as="geometry" />
        </mxCell>
        <mxCell id="M2FqS30lnjKGFiDD58Ys-2420" value="&lt;font style=&quot;font-size: 22px;&quot;&gt;&lt;span style=&quot;font-size: 22px;&quot;&gt;IDF1&lt;/span&gt;&lt;/font&gt;" style="rounded=1;whiteSpace=wrap;html=1;strokeColor=none;fillColor=none;fontSize=22;align=center;fontStyle=0;fontColor=#0D2574;labelBackgroundColor=#ffffff;" parent="1" vertex="1">
          <mxGeometry x="98.5" y="127" width="143" height="50" as="geometry" />
        </mxCell>
        <mxCell id="M2FqS30lnjKGFiDD58Ys-2422" value="&lt;font style=&quot;font-size: 22px;&quot;&gt;&lt;span style=&quot;font-size: 22px;&quot;&gt;IDF2&lt;/span&gt;&lt;/font&gt;" style="rounded=1;whiteSpace=wrap;html=1;strokeColor=none;fillColor=none;fontSize=22;align=center;fontStyle=0;fontColor=#0D2574;labelBackgroundColor=#ffffff;" parent="1" vertex="1">
          <mxGeometry x="355" y="127" width="143" height="50" as="geometry" />
        </mxCell>
        <mxCell id="M2FqS30lnjKGFiDD58Ys-2423" value="&lt;font style=&quot;font-size: 22px;&quot;&gt;&lt;span style=&quot;font-size: 22px;&quot;&gt;IDF3&lt;/span&gt;&lt;/font&gt;" style="rounded=1;whiteSpace=wrap;html=1;strokeColor=none;fillColor=none;fontSize=22;align=center;fontStyle=0;fontColor=#0D2574;labelBackgroundColor=#ffffff;" parent="1" vertex="1">
          <mxGeometry x="634" y="127" width="143" height="50" as="geometry" />
        </mxCell>
        <mxCell id="M2FqS30lnjKGFiDD58Ys-2424" value="&lt;font style=&quot;font-size: 22px&quot;&gt;&lt;span style=&quot;font-size: 22px&quot;&gt;IDF4&lt;/span&gt;&lt;/font&gt;" style="rounded=1;whiteSpace=wrap;html=1;strokeColor=none;fillColor=none;fontSize=22;align=center;fontStyle=0;fontColor=#0D2574;labelBackgroundColor=#ffffff;" parent="1" vertex="1">
          <mxGeometry x="880" y="117" width="143" height="50" as="geometry" />
        </mxCell>
        <mxCell id="M2FqS30lnjKGFiDD58Ys-2425" value="&lt;font style=&quot;font-size: 22px&quot;&gt;&lt;span style=&quot;font-size: 22px&quot;&gt;IDF5&lt;/span&gt;&lt;/font&gt;" style="rounded=1;whiteSpace=wrap;html=1;strokeColor=none;fillColor=none;fontSize=22;align=center;fontStyle=0;fontColor=#0D2574;labelBackgroundColor=#ffffff;" parent="1" vertex="1">
          <mxGeometry x="1122" y="117" width="143" height="50" as="geometry" />
        </mxCell>
        <mxCell id="M2FqS30lnjKGFiDD58Ys-2426" value="&lt;font style=&quot;font-size: 22px&quot;&gt;&lt;span style=&quot;font-size: 22px&quot;&gt;IDF6&lt;/span&gt;&lt;/font&gt;" style="rounded=1;whiteSpace=wrap;html=1;strokeColor=none;fillColor=none;fontSize=22;align=center;fontStyle=0;fontColor=#0D2574;labelBackgroundColor=#ffffff;" parent="1" vertex="1">
          <mxGeometry x="1389" y="117" width="143" height="50" as="geometry" />
        </mxCell>
      </root>
    </mxGraphModel>
  </diagram>
</mxfile>
